<?xml version="1.0" standalone="no"?>
<!DOCTYPE svg PUBLIC "-//W3C//DTD SVG 20010904//EN"
 "http://www.w3.org/TR/2001/REC-SVG-20010904/DTD/svg10.dtd">
<svg version="1.0" xmlns="http://www.w3.org/2000/svg"
 width="800.000000pt" height="800.000000pt" viewBox="0 0 800.000000 800.000000"
 preserveAspectRatio="xMidYMid meet">
<metadata>
Created by potrace 1.11, written by Peter Selinger 2001-2013
</metadata>
<g transform="translate(0.000000,800.000000) scale(0.100000,-0.100000)"
fill="#000000" stroke="none">
<path d="M5385 6671 c-8 -17 -20 -77 -26 -133 -12 -124 -54 -355 -75 -419 -19
-59 -67 -134 -93 -149 -32 -17 -71 33 -132 169 -61 136 -83 171 -109 171 -37
0 -39 -29 -9 -95 69 -147 64 -213 -34 -438 l-62 -142 0 -101 c0 -85 4 -108 24
-152 18 -38 30 -52 45 -52 13 0 -6 -18 -54 -49 -99 -65 -182 -147 -318 -316
-128 -157 -125 -155 -242 -219 -103 -57 -141 -92 -232 -216 -39 -52 -161 -187
-272 -300 -110 -113 -264 -271 -341 -351 -122 -127 -267 -250 -280 -237 -3 2
-6 107 -9 234 -2 147 -10 259 -20 314 -58 317 -185 544 -351 628 -132 66 -335
71 -393 10 -43 -47 -75 -271 -61 -430 11 -122 31 -194 84 -303 110 -224 119
-597 20 -821 -73 -165 -187 -276 -453 -440 -242 -150 -360 -248 -428 -355 -34
-55 -104 -214 -104 -238 0 -13 180 -143 592 -428 326 -225 601 -414 611 -419
26 -15 229 9 388 45 230 52 274 45 486 -82 135 -80 163 -92 258 -112 94 -19
222 -19 439 0 340 31 446 83 780 383 208 186 285 241 476 335 144 72 173 90
236 152 90 89 134 174 142 273 8 113 -33 192 -130 256 -88 57 -175 81 -304 81
l-112 0 39 46 c57 68 79 123 79 197 0 108 -38 170 -123 198 -73 24 -253 14
-417 -25 -69 -16 -126 -28 -128 -27 -1 2 26 25 60 52 35 27 114 98 176 158 92
89 119 122 149 182 33 69 35 78 31 146 -7 117 -66 188 -184 224 -90 27 -227
10 -371 -45 l-73 -29 32 37 c30 34 87 120 258 388 46 73 106 149 155 200 75
76 89 86 226 151 80 38 169 85 198 105 49 33 56 34 76 21 19 -13 26 -11 66 15
25 15 56 43 70 61 42 57 110 119 232 213 132 100 207 184 238 267 19 48 20 68
15 165 -3 61 -20 182 -38 270 -29 147 -31 175 -31 355 0 177 3 205 27 307 32
133 32 157 -6 161 -31 4 -34 -3 -72 -169 -40 -167 -91 -274 -194 -402 -97
-120 -200 -197 -263 -197 -34 0 -83 33 -144 96 -67 71 -89 70 -117 -1 -44
-113 -49 -139 -48 -255 2 -147 2 -151 -4 -157 -2 -2 -38 -13 -79 -24 -41 -10
-107 -32 -146 -48 -64 -26 -71 -27 -66 -11 3 11 -1 32 -9 48 -48 93 -38 179
40 359 30 70 61 149 68 176 l13 50 27 -35 c31 -42 75 -63 111 -54 60 15 142
130 165 232 19 81 19 81 46 34 14 -25 54 -83 89 -130 34 -47 70 -100 79 -117
20 -39 26 -40 54 -10 l22 23 -30 48 c-17 26 -53 78 -81 114 -115 153 -137 247
-99 443 26 141 25 163 -12 167 -21 3 -30 -3 -43 -27z m604 -695 c0 -99 8 -163
41 -322 30 -145 41 -297 26 -348 -19 -63 -58 -118 -128 -180 -67 -60 -221
-177 -226 -172 -1 2 2 23 7 47 15 65 13 179 -4 230 -9 25 -39 76 -68 114 l-53
70 -100 33 c-54 18 -117 36 -139 40 l-40 8 0 105 c1 76 6 118 19 152 10 26 20
47 23 47 3 0 27 -20 54 -44 55 -49 105 -76 143 -76 43 0 124 36 183 81 63 49
178 184 220 259 15 27 31 50 35 50 4 0 7 -42 7 -94z m-479 -614 c19 -9 40 -28
47 -42 76 -160 96 -252 73 -335 -10 -34 -29 -61 -80 -111 -122 -119 -162 -144
-425 -270 -62 -30 -98 -56 -162 -120 -79 -79 -122 -139 -304 -427 -92 -146
-174 -241 -309 -358 -146 -126 -260 -241 -260 -259 0 -22 20 -40 44 -40 11 0
60 40 115 93 166 161 326 257 508 303 147 37 228 31 301 -23 44 -33 62 -72 62
-136 0 -107 -89 -217 -349 -430 -250 -205 -319 -267 -350 -314 -36 -54 -38
-68 -11 -83 17 -9 25 -6 48 20 122 136 163 163 322 208 164 47 256 64 385 69
109 4 123 2 153 -16 39 -25 52 -55 52 -123 0 -132 -116 -238 -430 -391 -181
-89 -216 -113 -206 -145 5 -13 16 -22 28 -22 12 0 129 51 262 114 266 126 324
143 450 133 140 -12 256 -71 304 -152 34 -59 27 -150 -18 -234 -54 -100 -127
-160 -305 -247 -187 -91 -268 -148 -478 -336 -206 -184 -282 -242 -382 -289
-107 -52 -170 -66 -365 -84 -289 -26 -439 -16 -541 36 -24 12 -94 52 -155 88
-146 89 -200 105 -318 98 -50 -3 -146 -19 -214 -36 -67 -16 -166 -32 -220 -36
l-97 -6 -573 397 c-546 378 -573 398 -567 422 20 80 82 180 160 258 77 78 140
123 398 285 128 80 256 191 319 277 72 98 135 256 153 384 5 37 10 47 27 50
46 7 50 68 5 68 -24 0 -25 2 -26 90 -1 50 -4 97 -7 105 -5 12 0 14 27 8 54
-11 71 -9 82 8 18 29 1 45 -60 58 l-59 13 -17 81 c-11 51 -34 114 -61 167 -25
48 -52 120 -62 165 -24 105 -23 281 1 389 16 73 19 78 32 60 48 -64 98 -196
113 -302 13 -89 4 -191 -27 -305 -14 -51 -14 -60 -1 -73 39 -39 69 21 93 186
26 174 3 299 -86 470 -19 36 -35 68 -37 73 -6 13 112 8 172 -8 32 -8 78 -27
102 -41 97 -57 190 -199 244 -374 49 -158 62 -254 66 -495 4 -227 8 -281 26
-302 16 -19 58 -16 103 8 53 29 226 182 300 265 33 38 164 174 291 304 127
129 262 278 301 330 92 125 122 153 218 205 118 65 133 78 251 225 240 297
342 367 649 446 142 37 207 38 275 6z"/>
<path d="M5281 5354 c-96 -21 -184 -69 -241 -131 -61 -67 -64 -92 -14 -130 20
-15 61 -65 90 -110 77 -120 141 -152 232 -117 105 40 202 188 209 319 5 87
-15 129 -77 162 -50 26 -102 28 -199 7z m168 -69 c34 -17 41 -32 41 -93 0 -95
-104 -250 -178 -267 -50 -11 -82 13 -139 100 -29 44 -64 90 -79 103 l-27 23
29 31 c42 43 110 80 184 100 81 21 133 22 169 3z"/>
<path d="M4577 4653 c-21 -20 18 -113 47 -113 28 0 40 27 26 61 -21 49 -53 73
-73 52z"/>
<path d="M4387 4628 c-26 -14 -21 -29 34 -122 28 -46 61 -111 74 -143 28 -69
47 -85 72 -61 16 16 16 21 0 70 -19 61 -129 253 -150 261 -7 3 -21 1 -30 -5z"/>
<path d="M4196 4335 c-10 -26 52 -115 80 -115 37 0 39 34 7 82 -31 47 -75 63
-87 33z"/>
<path d="M3767 3869 c-27 -16 -20 -37 29 -85 47 -46 69 -52 88 -22 9 14 3 25
-29 59 -50 51 -66 60 -88 48z"/>
</g>
</svg>
